<svg id="Capa_1" enable-background="new 0 0 512 512" height="512" viewBox="0 0 512 512" width="512" xmlns="http://www.w3.org/2000/svg"><g><g><g><path d="m175.771 264.933 74.09-74.09c-15.998 15.998-41.937 15.998-57.935 0l-18.524-18.524 87.967-87.967.38-.38 62.248-22.486 30.362-30.362 81.414 81.414-224.354 188.043z" fill="#eebca8"/><path d="m264.259 353.421-52.84-52.84 207.861-207.861 63.259 63.259-32.025 32.025-22.486 62.248-103.17 103.17c-16.734 16.733-43.865 16.733-60.599-.001z" fill="#e9a48c"/></g><g><g><path d="m353.426 3.021h55.688v113.812h-55.688z" fill="#e06379" transform="matrix(.707 -.707 .707 .707 69.296 287.151)"/><path d="m426.647 79.663h55.688v106.971h-55.688z" fill="#c63c50" transform="matrix(.707 -.707 .707 .707 38.967 360.372)"/></g></g></g><g><g><path d="m336.229 264.933-95.347-95.347c15.998 15.998 41.937 15.998 57.935 0l18.524-18.524-66.71-66.71-.38-.38-62.248-22.486-30.362-30.362-81.414 81.414 224.354 188.042z" fill="#b26e5a"/><path d="m247.741 353.421 52.84-52.84-207.861-207.861-63.259 63.259 32.025 32.025 22.486 62.248 103.17 103.17c16.734 16.733 43.865 16.733 60.599-.001z" fill="#a45d4e"/></g><g><g><path d="m73.824 32.083h113.812v55.688h-113.812z" fill="#73cbb1" transform="matrix(.707 -.707 .707 .707 -4.085 109.993)"/><path d="m4.023 105.305h106.971v55.688h-106.971z" fill="#539499" transform="matrix(.707 -.707 .707 .707 -77.307 79.663)"/></g></g></g><g><g><path d="m205.586 193.886v134.841c0-22.625-18.341-40.966-40.966-40.966h-26.197v94.343.537l28.116 59.916v42.938h115.137l-25.676-291.609z" fill="#f6dccd"/><path d="m330.727 193.886h-74.727v293.96h89.461v-45.29l28.116-59.916v-145.904c0-23.666-19.184-42.85-42.85-42.85z" fill="#f1cbbc"/></g><g><g><path d="m149.029 456.312h113.812v55.688h-113.812z" fill="#ecbd2c"/><path d="m256 456.312h106.971v55.688h-106.971z" fill="#e68f21"/></g></g></g></g></svg>