<svg id="Capa_1" enable-background="new 0 0 512 512" height="512" viewBox="0 0 512 512" width="512" xmlns="http://www.w3.org/2000/svg"><g><path d="m429.491 360.06h-96.863v101.272h132.007v-66.128z" fill="#d5e7ff"/><path d="m332.628 0v360.06h96.863l35.144-35.144v-324.916z" fill="#eaf1ff"/><g><path d="m47.365 100.299v411.701h153.255l27.038-133.461-27.038-261.87z" fill="#c63c50"/></g><path d="m353.876 133.04-153.256-16.371v395.331h153.256z" fill="#a1003c"/><path d="m353.876 67.558h-273.77c-18.082 0-32.741 14.659-32.741 32.741 0 18.082 14.659 32.741 32.741 32.741h273.771z" fill="#edb6b6"/><g><g><path d="m193.695 221.575c-25.579 1.786-48.449 13.39-64.872 31.07 8.303 5.758 19.738 13.961 29.575 16.647 3.156-7.933 25.621-41.983 35.297-47.717z" fill="#f9e997"/><path d="m156.225 265.43c-9.837-2.686-19.099-7.027-27.402-12.785-16.245 17.488-26.184 40.914-26.184 66.665l51.015 7.706s-1.54-51.253 2.571-61.586z" fill="#fcf3ca"/><path d="m149.894 319.31h-47.255c0 25.751 9.939 49.177 26.184 66.665 8.302-5.758 23.692-5.35 33.529-8.036z" fill="#f9e997"/></g><path d="m156.225 265.43c7.565 2.066 48.955 8.29 48.955 8.29l-4.559-52.392c-2.329 0-4.637.087-6.925.247-17.202 10.194-30.258 25.723-37.471 43.855z" fill="#f5d844"/><path d="m200.62 268.583s40.673 2.066 48.238 0c-3.156-7.933-10.438-35.507-41.313-47.008-2.288-.16-4.596-.247-6.925-.247z" fill="#ecbd2c"/><path d="m245.016 265.43c5.159-1.409 13.13 2 17.917-.284 4.341-2.072 5.536-9.762 9.484-12.501-16.423-17.679-39.293-29.283-64.872-31.07 17.202 10.194 30.258 25.723 37.471 43.855z" fill="#e68f21"/><path d="m200.62 268.583h-20.856c-8.071 0-15.976-1.088-23.54-3.154-4.111 10.333-6.331 21.509-6.331 33.024v20.856l53.734 4.543z" fill="#f9e997"/><path d="m245.016 265.43c-7.565 2.066-15.469 3.154-23.54 3.154h-20.856v50.726l55.038 7.706c.001 0 6.01-50.291-10.642-61.586z" fill="#f5d844"/><path d="m251.347 298.454v20.856l25.504 6.915 21.752-6.915c0-25.751-9.939-49.177-26.184-66.665-8.303 5.758-17.564 10.099-27.402 12.785 4.11 10.333 6.33 21.509 6.33 33.024z" fill="#ecbd2c"/><path d="m149.894 319.31v20.856c0 11.516 2.219 22.691 6.331 33.024 7.565-2.066 47.404 3.01 47.404 3.01l3.917-56.89z" fill="#f5d844"/><path d="m200.62 370.036s38.301 8.684 45.866 10.749c14.998-14.998 4.861-61.476 4.861-61.476h-50.727z" fill="#ecbd2c"/><path d="m251.347 319.31v20.856c0 11.516-2.22 22.691-6.33 33.024 4.919 1.343 5.097 9.251 9.68 11.391 4.583 2.141 13.57-1.485 17.722 1.394 16.245-17.488 26.184-40.914 26.184-66.665z" fill="#e68f21"/><path d="m156.225 373.19c-9.837 2.686-19.099 7.027-27.402 12.785 16.423 17.679 39.293 29.283 64.872 31.07-10.213-6.052-13.338-17.211-20.273-26.454-4.745-6.324-14.267-10.035-17.197-17.401z" fill="#fcf3ca"/><path d="m205.18 370.036h-25.415c-8.071 0-15.976 1.088-23.54 3.154 7.214 18.132 20.269 33.661 37.471 43.855 2.288.16 4.596.247 6.925.247z" fill="#f9e997"/><path d="m245.016 373.19c-7.565-2.066-15.469-3.154-23.54-3.154h-20.856v47.255c2.329 0 4.637-.087 6.925-.247 12.901-7.645 26.2-14.275 33.722-26.77 2.508-4.164 1.946-12.551 3.749-17.084z" fill="#f5d844"/><path d="m207.546 417.044c25.579-1.786 48.449-13.39 64.872-31.07-8.303-5.758-17.564-10.099-27.402-12.785-7.213 18.133-20.269 33.662-37.47 43.855z" fill="#ecbd2c"/></g><g><path d="m200.62 0h167.81v133.04h-167.81z" fill="#eaf1ff"/></g></g></svg>