<svg id="Capa_1" enable-background="new 0 0 512 512" height="512" viewBox="0 0 512 512" width="512" xmlns="http://www.w3.org/2000/svg"><g><g><g><path d="m227.084 12.261c-63.792 4.455-120.827 33.394-161.784 77.484 20.706 14.36 49.224 34.817 73.758 41.516 7.87-19.783 63.896-104.701 88.026-119z" fill="#d5e7ff"/><path d="m133.637 121.629c-24.533-6.699-47.631-17.525-68.337-31.884-40.513 43.612-65.3 102.034-65.3 166.255l127.226 19.218s-3.842-127.818 6.411-153.589z" fill="#eaf1ff"/><path d="m117.849 256h-117.849c0 64.221 24.787 122.643 65.3 166.255 20.705-14.36 59.084-13.341 83.618-20.04z" fill="#d5e7ff"/></g><path d="m133.637 121.629c18.865 5.151 122.088 20.675 122.088 20.675l-11.37-130.659c-5.808 0-11.564.217-17.271.616-42.898 25.421-75.458 64.149-93.447 109.368z" fill="#acceff"/><path d="m244.355 129.494s101.435 5.151 120.3 0c-7.871-19.783-26.03-88.55-103.03-117.233-5.706-.399-11.463-.616-17.271-.616v117.849z" fill="#8bb9ff"/><path d="m355.073 121.629c12.865-3.513 32.746 4.989 44.683-.708 10.827-5.167 13.805-24.346 23.653-31.176-40.957-44.09-97.992-73.029-161.784-77.484 42.899 25.421 75.458 64.149 93.448 109.368z" fill="#6ba7ff"/><path d="m244.355 129.494h-52.011c-20.128 0-39.841-2.713-58.707-7.865-10.253 25.771-15.788 53.64-15.788 82.359v52.012l134.007 11.33z" fill="#d5e7ff"/><path d="m355.073 121.629c-18.865 5.151-38.579 7.865-58.707 7.865h-52.011v126.506l137.259 19.218s14.987-125.42-26.541-153.589z" fill="#acceff"/><path d="m370.861 203.989v52.011l63.603 17.246 54.246-17.246c0-64.221-24.787-122.643-65.3-166.255-20.706 14.36-43.803 25.185-68.336 31.884 10.252 25.771 15.787 53.641 15.787 82.36z" fill="#8bb9ff"/><path d="m117.849 256v52.011c0 28.719 5.535 56.589 15.788 82.359 18.865-5.151 118.22 7.506 118.22 7.506l9.768-141.876z" fill="#acceff"/><path d="m244.355 382.506s95.519 21.656 114.384 26.808c37.404-37.405 12.122-153.314 12.122-153.314h-126.506z" fill="#8bb9ff"/><path d="m370.861 256v52.011c0 28.719-5.535 56.589-15.788 82.359 12.267 3.35 12.712 23.07 24.141 28.409s33.843-3.704 44.195 3.476c40.513-43.612 65.3-102.034 65.3-166.255z" fill="#6ba7ff"/><path d="m133.637 390.371c-24.533 6.699-47.631 17.525-68.337 31.884 40.957 44.09 97.992 73.029 161.784 77.484-25.471-15.094-33.263-42.923-50.558-65.973-11.834-15.77-35.581-25.025-42.889-43.395z" fill="#eaf1ff"/><path d="m255.725 382.506h-63.381c-20.128 0-39.841 2.713-58.707 7.865 17.99 45.219 50.549 83.947 93.448 109.369 5.706.399 11.463.616 17.271.616z" fill="#d5e7ff"/><path d="m355.073 390.371c-18.865-5.151-38.579-7.865-58.707-7.865h-52.011v117.849c5.808 0 11.564-.217 17.271-.616 32.174-19.066 65.341-35.601 84.098-66.761 6.252-10.387 4.852-31.303 9.349-42.607z" fill="#acceff"/><path d="m261.625 499.739c63.792-4.455 120.827-33.394 161.784-77.484-20.706-14.36-43.803-25.185-68.336-31.884-17.99 45.219-50.549 83.947-93.448 109.368z" fill="#8bb9ff"/></g><g><path d="m337.164 139.748c-33.686-33.686-88.302-33.686-121.989 0-33.686 33.686-33.686 88.302 0 121.989l13.791 13.791 121.989 121.989 8.95-135.417-8.95-108.561z" fill="#e06379"/><g><path d="m486.735 139.748c-33.687-33.686-88.303-33.686-121.989 0l-13.791 13.791v243.978l121.989-121.989 13.791-13.791c33.687-33.686 33.687-88.303 0-121.989z" fill="#c63c50"/></g></g></g></svg>